<?xml version="1.0" encoding="utf-8"?>
<!-- Generator: Adobe Illustrator 24.1.2, SVG Export Plug-In . SVG Version: 6.00 Build 0)  -->
<svg version="1.1" xmlns="http://www.w3.org/2000/svg" xmlns:xlink="http://www.w3.org/1999/xlink" x="0px" y="0px"
	 viewBox="0 0 313.1 108.5" style="enable-background:new 0 0 313.1 108.5;" xml:space="preserve">
<style type="text/css">
	.st0{display:none;}
	.st1{display:inline;}
	.st2{fill:#FFFFFF;}
	.st3{fill:#0072BC;}
	.st4{fill:#ED1C24;}
</style>
<g id="Bgd" class="st0">
	<rect class="st1" width="313.1" height="108.5"/>
</g>
<g id="Art">
	<g id="Hor_x5F_Rev_x5F_Trap_x5F_4C">
		<path class="st2" d="M54.2,0C24.3,0,0,24.3,0,54.2s24.3,54.2,54.2,54.2s54.2-24.3,54.2-54.2S84.1,0,54.2,0z"/>
		<path class="st3" d="M23.6,74.7c0,0-0.9-2.2,1.3-2.1h11.7c2,0,2.5,2.1,2.5,2.1c0.9,3.8,2.1,7.5,3.5,11.1c0,0,1,1.9-1,1.9h-8.9
			c-2.1,0-3.2-2-3.2-2C27,82.4,25.1,78.7,23.6,74.7z M23.9,70.6h12.3c2,0,1.5-1.9,1.5-1.9c-0.1-0.5-0.1-0.9-0.2-1.4
			c-1.6-0.3-2.9-0.8-4.2-1.3c-1.4-0.5-2.8-1.1-4.8-1.5c-4.2-0.9-5.9-1.4-6.5-2.7c-0.1,0-0.6,0-0.8,0c-0.3,0-0.6-0.1-0.9-0.2
			c0.3,2.4,0.7,4.8,1.3,7.1C21.7,68.7,21.8,70.5,23.9,70.6z M41.4,20.7h-8.9c-2.1,0-3.2,2-3.2,2c-0.3,0.5-0.6,1-0.9,1.4
			c0.2,0.2,0.4,0.5,0.6,0.8l0.4,0.8c0.3,0,0.4,0,0.7,0c1.3,0.1,2.7-2.7,2.7-2.7s2.9,3.6,1.8,6.2c-1.1,2.4-2.8,2.6-3.7,2.7
			c-0.2,0-0.4,0.1-0.5,0.1c-0.3,0.2-0.7,0.5-1.1,0.7c0,0.9-0.3,2-1,3.1h8.2c2,0,2.5-2.1,2.5-2.1c0.9-3.8,2.1-7.5,3.5-11.1
			C42.4,22.7,43.4,20.7,41.4,20.7z M61,20.7H47.5c-1.3,0-2.7,1-3.1,2.3l-3.2,10.5c-0.3,1.3,0.4,2.3,1.7,2.3h22.6c1.3,0,2-1,1.7-2.3
			L64.1,23C63.6,21.7,62.2,20.7,61,20.7z M84.5,37.9H72.3c-2,0-1.5,1.9-1.5,1.9c0.6,3.4,0.9,6.8,1,10.3c1.1-0.5,2.4-0.8,3.6-0.8
			c0.1,0,1.7,0.2,2.6-0.5c0.3-0.6,0.7-1,1.3-1.2l0.1-0.3c0.3-1.1,1.4-2.4,3.3-2.8c0.3,0,0.5-0.1,0.8-0.1c1.6,0,2.6,0.9,3.4,1.5
			c0,0,0.6,0.4,1.3,1c-0.3-2.4-0.7-4.8-1.3-7.1C86.8,39.8,86.6,38,84.5,37.9z M67.1,87.8H76c2.1,0,3.2-2,3.2-2
			c2.1-3.1,3.9-6.5,5.3-10.1c-3.4-0.5-7-1.3-9.7-2.4l-0.3,0.1c-0.3,0.1-2.7,0.7-4.6,0.7c0,0,0,0,0,0c-0.2,0.3-0.2,0.6-0.2,0.6
			c-0.9,3.8-2.1,7.5-3.5,11.1C66.1,85.8,65.1,87.8,67.1,87.8z M47.5,87.8H61c1.3,0,2.7-1,3.1-2.3l3.1-10.1c-1.9,1.2-4.5,2.7-7.7,3.4
			c-0.9,0.2-1.8,0.3-2.6,0.3c-4.1,0-5.9-2.2-6.6-3.1c0,0-1.2-1.6-2.5-3.3h-4.8c-1.3,0-2,1-1.7,2.3l3.2,10.5
			C44.9,86.7,46.3,87.8,47.5,87.8z M68.6,40.3c-0.2-1.3-1.4-2.4-2.6-2.4H42.5c-1.3,0-2.4,1.1-2.6,2.4l-0.2,2.3
			c0.6,0.8,1.2,1.8,1.5,2.8c0.6-0.3,1.4-0.4,2.1-0.4l0,0c0.8,0,1.6,0.2,2.4,0.5c1.1,0.4,15.9,6.7,17.9,7.6c0,0,0,0,0,0h3.8
			c0.4,0,0.7-0.1,1-0.3c0.1-0.1,0.1-0.1,0.2-0.2c0.2-0.3,0.5-0.6,0.8-0.9c0.1-0.3,0.2-0.7,0.2-1.1L68.6,40.3z M83.6,35.8
			c2.2,0.1,1.3-2.1,1.3-2.1c-1.5-3.9-3.4-7.6-5.7-11.1c0,0-1.1-2-3.2-2h-8.9c-2,0-1,1.9-1,1.9c1.4,3.6,2.6,7.3,3.5,11.1
			c0,0,0.5,2,2.5,2.1H83.6z M90.4,37.9c-1.8,0-1.3,1.9-1.3,1.9c0.7,2.9,1.2,5.9,1.5,9c1.1,0.9,2.2,1.7,2.7,2.1
			c0.6,0.5,1.4,1.2,2.3,2.2h8.4c2.4,0,2.2-2.4,2.2-2.4c-0.2-3.9-0.8-6.8-1.8-10.4c0,0-0.5-2.3-3.2-2.3H90.4z M36.2,37.9H26.1
			c-0.2,0.1-0.3,0.2-0.5,0.3c-1.3,0.7-2.6,1-3.9,1.1c-0.1,0.3-0.1,0.5-0.1,0.5c-0.5,2.1-0.9,4.2-1.2,6.4c0,0.2,0.1,0.3,0.1,0.3
			c0,0,0.2,1.1,1.2,2.3c0.2,0.2,0.4,0.5,0.6,0.7c0.3-0.5,0.7-0.9,1.2-1.3c-0.3-0.4-0.6-0.8-0.6-1.3c-0.2-0.8,0-1.6,0.5-2.3l1.6-2.3
			c0.6-0.9,1.7-1.4,2.8-1.4c0.6,0,1.2,0.2,1.7,0.5c0.1-0.1,0.3-0.3,0.4-0.4c0.8-0.7,2-1.1,3.5-1.1c1.2,0,2.5,0.3,3.7,0.7
			c0.2,0.1,0.4,0.2,0.6,0.3c0.1-0.3,0.1-0.7,0.2-1C37.7,39.8,38.2,37.9,36.2,37.9z M95.8,73.4C95.8,73.4,95.8,73.4,95.8,73.4
			C95.8,73.4,95.7,73.4,95.8,73.4C95.7,73.4,95.8,73.4,95.8,73.4z M58.8,67.5c0.2,0.3,0.4,1.2,0.6,1.7c0.8-0.6,2-1,3.3-1
			c0.2,0,1.9,0.1,2.3,0.1c2.4,0.2,2.7-1.2,2.7-1.2c0.2-0.7,0.7-1.5,1.3-2.2l0.2-1.7C64.9,66.1,60.9,67.1,58.8,67.5z M90.1,20.7h-7.2
			c-3,0-1.6,1.9-1.6,1.9c2.8,3.9,4.2,6.9,5.7,11.2c0,0,0.3,2.1,2.8,2.1H100c2.7,0,1.7-2.5,1.7-2.5c-1.7-4.5-4.4-8.6-6.6-10.9
			C93.4,20.5,90.1,20.7,90.1,20.7z M42.5,70.6h3.6c-0.4-0.5-0.7-1-0.9-1.2l-1-1.4c-1.5-0.1-3-0.2-4.4-0.3l0.1,0.6
			C40.1,69.5,41.2,70.6,42.5,70.6z M86.8,68.7c0.6-2.3,1-4.8,1.3-7.2c-0.5-1.9-1.5-4-3-5.3l-0.6-0.5c-0.1,0-2.7-0.6-5,0.3
			c-1.8,0.7-2.7,1.2-8,5.4c-0.1,0.8-0.1,1.6-0.2,2.4c1.5,0.1,3.7,0.8,5.8,2.5c1.1,0.9,3.4,2.7,8.7,3.9
			C86.7,69.6,86.8,68.7,86.8,68.7z M60.1,89.5H48.4c-1.3,0-1.8,1-1.2,2.2c0,0,2.5,6.3,5,10.7c0.9,1.6,1.1,1.8,2,1.8s1.1-0.2,2-1.8
			c2.6-4.4,5-10.7,5-10.7C61.9,90.5,61.3,89.5,60.1,89.5z M44.9,91.6c0,0-0.7-2.1-2.8-2.1h-7.7c-2.6,0-0.4,2.2-0.4,2.2
			c4.3,5,9.7,9.8,15.6,12.5c2.2,1,2.5,1,1.6-0.5C49.9,101.7,46.3,94.8,44.9,91.6z M18.4,87.8h7.2c3,0,1.6-1.9,1.6-1.9
			c-2.8-3.9-4.2-6.9-5.7-11.2c0,0-0.3-2.1-2.8-2.1H8.4c-2.7,0-1.7,2.5-1.7,2.5c1.7,4.5,4.4,8.6,6.6,10.9
			C15.1,88,18.4,87.8,18.4,87.8z M48.9,105.2c-7.3-3.3-12.9-8.1-17.4-13.5c-2.1-2.2-4.5-2.1-4.5-2.1h-8c0,0-3,0-1.2,2.1
			c6.9,6.8,16.2,12,27,13.9C47.7,106,51.8,106.5,48.9,105.2z M74.5,91.7c0,0,2.3-2.2-0.4-2.2h-7.7c-2.1,0-2.8,2.1-2.8,2.1
			c-1.4,3.1-5,10.1-6.3,12.1c-0.9,1.4-0.6,1.5,1.6,0.5C64.8,101.5,70.1,96.7,74.5,91.7z M104,55.4h-6.4c2.1,2.6,4.1,5.5,4.8,7.3
			l0.3,0.8c0.3,0.7-0.1,1.5-0.8,1.7l-0.8,0.2c0,0-1,0.4-2.3,1.5c-1,0.9-2.1,1.4-3.3,1.4c-1.2,0-2.1-0.4-2.6-0.7c0,0-1.3-0.2-2.1-0.2
			l-1.6,0c-0.1,0.4-0.2,0.8-0.3,1.2c0,0-0.4,1.9,1.3,1.9h10.8c2.7,0,3.2-2.3,3.2-2.3c1-3.6,1.6-6.6,1.8-10.4
			C106.2,57.8,106.4,55.4,104,55.4z M100,72.7h-1.8c0.3,0.4,0.4,0.9,0.4,1.4c0,2.4-2.8,2.4-4.9,2.4c-1.8,0-4.4-0.1-7.2-0.5
			c-1.3,3.6-2.7,6.4-5.2,9.9c0,0-1.4,1.9,1.6,1.9h7.2c0,0,3.3,0.2,5.1-1.7c2.2-2.3,4.9-6.5,6.6-10.9C101.8,75.2,102.8,72.7,100,72.7
			z M89.3,89.5h-8c0,0-2.3-0.1-4.5,2.1c-4.5,5.4-10,10.2-17.4,13.5c-2.9,1.3,1.2,0.8,4,0.3c10.8-1.9,20.1-7.1,27-13.9
			C92.3,89.5,89.3,89.5,89.3,89.5z M8.4,35.8h3.6c0-0.1,0-0.2,0.1-0.3c0.1-0.6,0.3-1.6,0.8-2.6l-0.2-0.7c-0.4-1.1-0.5-3.6,1.4-5.7
			c1.1-1.2,2.6-1.9,4.3-1.9c1.3,0,2.7,0.8,4.1,0.7c0.5,0,0.6-0.2,0.6-0.2c1.2-1.3,2.3-1.9,3.4-1.9c0.1,0,0.1,0,0.2,0
			c0.2-0.2,0.3-0.5,0.5-0.7c0,0,1.4-1.9-1.6-1.9h-7.2c0,0-3.3-0.2-5.1,1.7c-2.2,2.3-4.9,6.5-6.6,10.9C6.7,33.3,5.7,35.8,8.4,35.8z
			 M34,16.8c0,0-2.3,2.2,0.4,2.2h7.7c2.1,0,2.8-2.1,2.8-2.1c1.4-3.1,5-10.1,6.3-12.1c0.9-1.4,0.6-1.5-1.6-0.5
			C43.7,7,38.3,11.8,34,16.8z M18.1,70.6c1.8,0,1.3-1.9,1.3-1.9c-0.7-2.7-1.2-5.5-1.4-8.3c-1.4-1.1-2.5-2.8-2.9-4.9H4.5
			c-2.4,0-2.2,2.4-2.2,2.4c0.2,3.9,0.8,6.8,1.8,10.4c0,0,0.5,2.3,3.2,2.3H18.1z M63.6,16.8c0,0,0.7,2.1,2.8,2.1h7.7
			c2.6,0,0.4-2.2,0.4-2.2c-4.3-5-9.7-9.8-15.6-12.5c-2.2-1-2.5-1-1.6,0.5C58.6,6.7,62.2,13.7,63.6,16.8z M48.4,18.9h11.7
			c1.3,0,1.8-1,1.2-2.2c0,0-2.5-6.3-5-10.7c-0.9-1.6-1.1-1.8-2-1.8s-1.1,0.2-2,1.8c-2.6,4.4-5,10.7-5,10.7
			C46.6,17.9,47.1,18.9,48.4,18.9z M19.2,18.9h8c0,0,2.3,0.1,4.5-2.1c4.5-5.4,10-10.2,17.4-13.5C51.8,2,47.7,2.5,45,3
			c-10.8,1.9-20.1,7.1-27,13.9C16.2,19,19.2,18.9,19.2,18.9z M4.5,53.1h10.4c-0.1-1.1-0.3-1.9-1.3-3.8c-1.5-2.7-1.4-4.2-2.2-5.5
			l-0.6-1c-0.1-0.2-1.1-2-0.1-4.4c0.1-0.2,0.2-0.3,0.2-0.5H7.3c-2.7,0-3.2,2.3-3.2,2.3c-1,3.6-1.6,6.6-1.8,10.4
			C2.3,50.7,2,53.1,4.5,53.1z M59.5,3.3c7.3,3.3,12.9,8.1,17.4,13.5c2.1,2.2,4.5,2.1,4.5,2.1h8c0,0,3,0,1.2-2.1
			c-6.9-6.8-16.2-12-27-13.9C60.8,2.5,56.6,2,59.5,3.3z"/>
		<path class="st4" d="M12.5,41.8c0,0-0.6-1.1,0-2.6s1.3-1.6,1.6-3.3s0.9-4.1,4.3-4.8s5.8,4.3,8.8,1c0,0,0.5,2.6-2.5,4.3
			c-3,1.6-5.3,0.6-6.2,0.3c-0.9-0.3-2.5-1.7-3.1,0.1c-0.5,1.7,2.8,1.2,2.1,4.1C17.6,40.9,14.8,39.1,12.5,41.8z M23.2,30.3
			c0,0,1.2-0.7,2-2.6c0.8-1.8,2.1-1.9,2.1-1.9c-0.5-1-1.6-0.4-2.6,0.7s-3.3,0.7-4.1,0.5c-0.8-0.2-3.3-1-4.9,0.8
			c-1.6,1.8-1,3.8-1,3.8C18.6,28,23.2,30.3,23.2,30.3z M29.1,30.5c1.2-1,2.6,0.1,3.6-2c0.6-1.4,0-2.4,0-2.4
			c-1.3,1.9-2.1,1.8-4.1,1.6c-2-0.2-2.1,0.6-3,1.8C24.7,30.7,24,31,24,31C25.1,32,27.9,31.5,29.1,30.5z M14.9,41.8
			c-1.3,0.4-1.9,1.8-1.5,3.2c0.4,1.4,1.8,2.2,3.1,1.8s1.9-1.8,1.5-3.2C17.6,42.2,16.2,41.4,14.9,41.8z M17.1,54.9
			c0.3,2.8,2.5,4.7,4.3,4.8c1.8,0.2,2.9-0.7,2.8-3c-0.1-2.3-2.6-4.8-4.1-6.6c-1.5-1.7-1.7-3.4-1.7-3.4c-1.3,2-3.5,1.1-3.5,1.1
			C16.6,49.5,16.8,52.1,17.1,54.9z M26.1,49.5c-1.3,0-2.4,1.1-2.4,2.4s1.1,2.4,2.4,2.4c1.3,0,2.4-1.1,2.4-2.4S27.4,49.5,26.1,49.5z
			 M32.1,50.3l1.4-2.4c0.4-0.6,0.2-1.4-0.4-1.8l-4.6-2.9c-0.6-0.4-1.4-0.2-1.8,0.4L25,45.8c-0.3,0.5-0.2,1.1,0.3,1.4l5.4,3.5
			C31.1,50.9,31.8,50.8,32.1,50.3z M29,54c-0.3,0.5-1.3,0.6-1.3,0.6c3.5,1.2,1.6-0.1,4.8-0.2c3.3-0.1,5.3-1,6.5-4.6
			s-0.9-6.6-2.8-7.3c-1.9-0.7-4.2-0.8-5.1,0c-0.9,0.8,0.2,1.3,0.2,1.3s1.8,1.1,3,2c1.2,0.9,0.6,2,0.6,2s-1.3,2.4-2.1,3.5
			s-2.6,0.8-2.6,0.8S29.3,53.5,29,54z M29,62.5c4.9,1,6.4,2.7,10.9,3.1s11.2,0.4,11.2,0.4c-0.4-3.2-0.3-5.3-0.3-5.3
			c-4.9-0.8-6.8-1.1-8.3-3c-1.6-1.9,0.3-4.8,0.3-4.8c-1.3-1.3-2.9-1.2-2.9-1.2c-1.8,3.3-5.7,4.1-6.8,3.9s-1.4,0-2.1,0.5
			c-0.7,0.5-1.5,0.4-3.3-0.4c-1.8-0.7-2,0.4-2,0.4c-0.2,4.1-1.3,3.7-1.8,4.2C23.5,61,24.3,61.5,29,62.5z M56.8,55
			c3.1,2.4,6.6,1.4,6.6,1.4c0.6-1-0.5-1.4-0.5-1.4S46,47.8,45,47.4c-1.1-0.4-2.6-0.6-3.7,0.4c-1.1,1.1-0.9,2.7-0.9,2.7
			c2.8,0.5,3.5,1.9,3.5,1.9C49.7,52,55.5,54,56.8,55z M51.9,59.7c-0.1,0.8,0.4,7.7,0.4,7.7c1.3,1,2.9,0.4,2.9,0.4
			c0.8-2.1,1.9-9.6,1.5-11c-0.5-1.4-1.2-1.7-5-2.5c-3.8-0.8-6.5-1-7.2-0.8c-0.7,0.2-1.6,1.2-1.3,2.7c0.3,1.5,2.4,2.2,2.4,2.2
			C47.9,59.1,51.9,59.7,51.9,59.7z M54.1,72.6c1.3-0.2,1.9-1.4,1.3-2.6c-0.6-1.2-2-1.4-2.9-1.1s-1.1,1.4-1.1,1.4
			C51,72.2,52.8,72.7,54.1,72.6z M58,57.2c0,0,0.1,4-1,8.5c0,0,6.2-0.3,12.4-5.2s7.2-5.6,9.6-6.5c2.3-0.8,3.7-0.7,4.8-0.6
			s2,0.6,2.5-0.2c0.5-0.8-2.4-3.2-4.1-3.7s-2.2-0.3-2.5,0.4c-0.3,0.7-2.3,1.5-4,1.4s-4.1,0.8-5.5,2.5C68.8,55.6,63.8,58.7,58,57.2z
			 M87.8,52.9c0.4,1.1-1.4,1.7-1.4,1.7c4.1,3.6,4.5,10.9,4.5,10.9s2.1,0,2.7,0.3c0.6,0.3,2.2,1.3,3.9-0.3s3-2,3-2
			c-1.2-2.8-6.3-9.4-8.5-11s-5.1-4-6-4.7c-0.9-0.7-1.7-1.6-3.1-1.4c-1.4,0.2-1.7,1.4-1.7,1.4C84.4,49,87.5,51.8,87.8,52.9z
			 M51.5,74.4c0.6,0.6,2.3,3.4,7.5,2.3c5.2-1,8.7-4.7,10.5-4.7s4.4-0.6,4.4-0.6c-1.2-2.6-5.3-2.9-5.3-2.9c-0.9,1.4-2.7,1.6-5.7,1.4
			c-3-0.2-3.9,1.8-3.9,1.8s-0.9,0-1.3-1.6c-0.4-1.6-1.3-2.2-1.3-2.2s-1,0.6-0.3,1.7c0.7,1,0.4,2.1,0.2,2.6c-0.4,1.1-2.6,2.1-4.6,0.9
			c-2.4-1.5-0.7-5-0.7-5c-1.1,0-4.2,0-4.2,0S50.9,73.8,51.5,74.4z M75.2,71.3c7.1,3,21.4,3.6,21.4,2.7c0-0.7-0.9-0.7-0.9-0.7
			c-12.9-0.5-17.5-3.8-19.8-5.6s-5-2.3-5-2.3c-1.3,0.2-1.7,1.7-1.7,1.7C73.4,67.4,75.2,71.3,75.2,71.3z"/>
		<path class="st2" d="M200.1,20.7l23,67h-63.9l12.9-40c5.1,0,10.4,0,16.7,0L181,71.8h19.7l-17.3-51.1H200.1z M309.6,21.2
			c-0.8,0-1.6,0.3-2.2,0.9c-0.6,0.6-0.9,1.3-0.9,2.2c0,0.9,0.3,1.6,0.9,2.2c0.6,0.6,1.3,0.9,2.2,0.9s1.6-0.3,2.2-0.9
			c0.6-0.6,0.9-1.3,0.9-2.2c0-0.8-0.3-1.6-0.9-2.2C311.1,21.5,310.4,21.2,309.6,21.2z M313.1,24.3c0,1-0.3,1.8-1,2.5
			c-0.7,0.7-1.5,1-2.5,1c-1,0-1.8-0.3-2.5-1c-0.7-0.7-1-1.5-1-2.5c0-1,0.3-1.8,1-2.5c0.7-0.7,1.5-1,2.5-1c1,0,1.8,0.3,2.5,1
			C312.8,22.4,313.1,23.3,313.1,24.3z M310.5,23.5c0-0.3-0.1-0.5-0.3-0.6c-0.2-0.1-0.5-0.1-0.8-0.1h-0.6v1.4h0.6
			c0.3,0,0.5,0,0.7-0.1C310.4,24,310.5,23.8,310.5,23.5z M308.1,22.3h1.4c0.5,0,0.8,0,1.1,0.1c0.4,0.2,0.6,0.5,0.6,1
			c0,0.4-0.1,0.6-0.4,0.8c-0.1,0.1-0.3,0.2-0.6,0.2c0.3,0,0.5,0.2,0.7,0.4c0.1,0.2,0.2,0.4,0.2,0.6v0.3c0,0.1,0,0.2,0,0.3
			c0,0.1,0,0.2,0,0.2l0,0h-0.6c0,0,0,0,0,0c0,0,0,0,0,0l0-0.1v-0.3c0-0.5-0.1-0.8-0.4-0.9c-0.1-0.1-0.4-0.1-0.8-0.1h-0.5v1.5h-0.7
			V22.3z M257.3,20.7h-29.8v15.9l20.9,0l0,0.1c9.9,0,17.8,7.7,17.8,17.6c0,9.9-8.2,17.5-18.1,17.5h-4.6V47.7h-15.9v40h29.8
			c15.3-1.4,26.3-17.1,26.3-33.5C283.6,37.9,271.4,22.1,257.3,20.7z M168.1,41.9c0-11.6-9.7-20.8-21.2-21.1h0h0
			c-0.1,0-24.8,0-24.8,0v15.9h22.7c2.9,0.2,5.2,2.3,5.2,5.2c0,3-2.4,5.7-5.3,5.8h-22.5v40H138V63.3l9,0
			C158.6,62.7,168.1,53.5,168.1,41.9z M303.6,87.7v-67h-15.9v67H303.6z"/>
	</g>
</g>
</svg>
